<?xml version="1.0" encoding="utf-8"?>
<!-- Generator: Adobe Illustrator 26.5.2, SVG Export Plug-In . SVG Version: 6.00 Build 0)  -->
<svg version="1.1" id="_이어_1" xmlns="http://www.w3.org/2000/svg" xmlns:xlink="http://www.w3.org/1999/xlink" x="0px" y="0px"
	 viewBox="0 0 300 300" style="enable-background:new 0 0 300 300;" xml:space="preserve">
<style type="text/css">
	.st0{fill:#6B3F00;}
</style>
<path class="st0" d="M220.49,83.44c-3.96-4.9-8.84-8.38-14.61-10.44c-5.77-2.06-13.67-3.1-23.67-3.1h-40.36
	c-0.36,0-0.64,0.28-0.64,0.64v1.78c0,0.36,0.28,0.64,0.64,0.64h3.58c4.24,0,7.42,1.22,9.58,3.63c1.5,1.7,2.24,6.07,2.24,13.11v29.21
	c-5.82-2.06-10.36-3.4-13.59-4.04c-3.33-0.64-7.04-0.97-11.1-0.97c-11.18,0-20.96,2.13-29.06,6.93
	c-10.74,6.38-17.5,13.54-23.11,23.88c-7.49,13.79-9.07,28.58-4.67,44.38c2.69,9.65,7.67,18.7,14.96,25.6
	c10.62,10.06,24.31,15.22,43,15.22c7.54,0,14.38-0.76,20.55-2.31c5.89-1.47,11.96-3.68,18.03-6.76c0.48-0.25,0.81-0.76,0.81-1.32
	v-23.75c0-0.66,0-1.35,0-2.01l0,0v-4.39c0.2-3.35,0.56-6.3,1.09-7.34c0.86-1.68,2.18-2.95,3.96-3.81c1.27-0.64,3.94-1.02,6.96-1.19
	h5.33c0.36,0,0.64-0.28,0.64-0.64v-1.78c0-0.36-0.28-0.64-0.64-0.64h-5.79c-4.72,0-8.1-1.55-10.16-4.62
	c-0.71-1.09-1.17-3.28-1.42-6.3v-33.66c3.56,0.76,6.91,1.35,10.06,1.73c3.12,0.38,6.05,0.58,8.74,0.58c11,0,19.51-2.87,25.53-8.59
	c6.02-5.72,9.04-13.16,9.04-22.28c0-6.71-1.98-12.52-5.94-17.42L220.49,83.44z M139.62,177.04h5.33c3.05,0.18,5.69,0.56,6.96,1.19
	c1.78,0.89,3.1,2.16,3.96,3.81c0.53,1.04,0.89,3.96,1.09,7.34c0.13,2.06,0.18,4.29,0.18,6.35v21.72c0,0.53-0.28,1.04-0.76,1.3
	c-3.38,1.78-7.11,3.33-10.69,4.27c-3.86,1.02-7.85,1.52-11.96,1.52c-7.04,0-12.4-2.21-19.1-6.17c-6.68-3.96-12.09-10.19-16.21-18.67
	c-4.11-8.48-6.2-20.78-6.2-31.07c0-12.68,3.1-24.54,9.32-33.73c7.42-10.87,18.49-15.82,32.51-16.31c8.31-0.3,16.66,1.5,23.14,5.33
	v33.3c0,2.29-0.08,4.14-0.23,5.82c-0.25,3.02-0.71,5.21-1.42,6.3c-2.03,3.07-5.41,4.62-10.16,4.62h-5.79
	c-0.36,0-0.64,0.28-0.64,0.64v1.78c0,0.36,0.28,0.64,0.64,0.64L139.62,177.04z M201.39,119.71c-4.17,4.42-9.09,6.66-14.81,6.66
	c-1.6,0-3.53-0.15-5.77-0.41c-2.26-0.28-7.75-1.24-7.75-1.24V79.83c0,0,0-1.78,1.85-2.08c3.58-0.76,6.55-1.14,8.97-1.14
	c4.62,0,8.74,1.04,12.37,3.1s6.43,5.18,8.41,9.32c1.98,4.17,2.97,8.66,2.97,13.49c0,7.04-2.08,12.78-6.22,17.2H201.39z"/>
</svg>
