<?xml version="1.0" encoding="utf-8"?>
<svg id="master-artboard" viewBox="0 0 1392.2786865234375 200" version="1.1" xmlns="http://www.w3.org/2000/svg" x="0px" y="0px" style="enable-background:new 0 0 1400 980;" width="1392.2786865234375px" height="200px"><rect id="ee-background" x="0" y="0" width="1392.2786865234375" height="200" style="fill: white; fill-opacity: 0; pointer-events: none;"/><g transform="matrix(4, 0, 0, 4, -3.7145411066230736, 23.1451416015625)"><path d="M318.4,19c0-5.6-0.8-10.8-0.8-11.7H315c0,1-0.8,6.1-0.8,11.7s0.8,10.8,0.8,11.7h23.2v-3.1H318&#10;&#9;C318.1,25.3,318.4,22.1,318.4,19 M285.6,27.4h-21.7c0.2-1.9,0.4-4.6,0.6-7.3h15V17h-15c0-2.5-0.4-5-0.6-6.7H285V7.2h-24&#10;&#9;c0,1-0.8,6.1-0.8,11.7s0.8,10.8,0.8,11.7h24.8v-3.3h-0.2V27.4z M234.1,10.4V7.3h-27.3v3.1h11.9c-0.2,2.3-0.6,5.4-0.6,8.6&#10;&#9;c0,5.6,0.8,10.8,0.8,11.7h2.7c0-1,0.8-6.1,0.8-11.7c0-3.3-0.2-6.3-0.6-8.6H234.1z M176.2,7.3c0,1-0.8,6.1-0.8,11.7&#10;&#9;s0.8,10.8,0.8,11.7h2.7c0-1,0.8-6.1,0.8-11.7s-0.8-10.8-0.8-11.7H176.2z M124.1,19c0,5.6,0.8,10.8,0.8,11.7h2.7&#10;&#9;c0-0.8,0.6-5.2,0.8-10.2h13.4v-3.1h-13.4c0-2.7-0.2-5.2-0.4-7.1h20.2V7.2H125C124.9,8.1,124.1,13.4,124.1,19 M79.8,28&#10;&#9;c-4,0-11.5-6.1-11.5-9s7.5-9,11.5-9s11.5,6.1,11.5,9S83.8,28,79.8,28 M79.8,6.1C75.2,6.1,64,15.4,64,19s11.1,12.9,15.7,12.9&#10;&#9;c4.4,0,15.7-9.2,15.7-12.9C95.5,15.2,84.2,6.1,79.8,6.1 M35.2,19.8C29.7,16.3,17,16.1,17,12.9c0-1.7,4-3.3,8.6-3.3&#10;&#9;c2.5,0,6.7,1,9.4,3.3l1.9-2.7c-3.8-2.5-8.1-3.5-11.7-3.5C17,6.5,12.6,10.4,12.6,13c0,2.1,2.5,3.8,4.6,4.8c7.7,3.3,16.1,3.1,16.1,6.3&#10;&#9;c0,1.9-3.6,4-8.6,3.8c-3.6,0-8.1-1.5-10.9-3.8L11.9,27c2.9,1.9,7.9,4,12.9,4c5.2,0,8.4-1.3,10.8-3.1c2.3-1.7,2.5-3.6,2.5-4.2&#10;&#9;C38.1,22.8,37.3,21.1,35.2,19.8" style="fill: rgb(255, 255, 255);"/></g></svg>