<?xml version="1.0" encoding="UTF-8"?><svg xmlns="http://www.w3.org/2000/svg" viewBox="0 0 101.03 105.52"><defs><style>.b{isolation:isolate;}.c{fill:#595757;}.d{mix-blend-mode:multiply;}</style></defs><g class="b"><g id="a"><g class="d"><path class="c" d="M97.13,8.94c-2.61-3.22-5.82-5.51-9.62-6.87C83.7,.7,78.51,.02,71.91,.02h-26.59c-.23,0-.42,.19-.42,.42V1.61c0,.23,.19,.42,.42,.42h2.35c2.79,0,4.89,.8,6.3,2.39,.98,1.12,1.47,4,1.47,8.64v19.25c-3.83-1.36-6.83-2.25-8.95-2.65-2.19-.42-4.63-.63-7.31-.63-7.36,0-13.8,1.4-19.13,4.56-7.08,4.2-11.52,8.91-15.22,15.73C-.1,58.4-1.13,68.15,1.76,78.54c1.77,6.36,5.06,12.32,9.85,16.86,6.99,6.62,16.01,10.03,28.32,10.03,4.96,0,9.47-.51,13.53-1.52,3.89-.97,7.89-2.43,11.88-4.45,.32-.16,.53-.5,.53-.86v-15.65c0-.43,0-.88,.01-1.33h0v-2.89c.13-2.22,.37-4.14,.72-4.83,.56-1.1,1.43-1.94,2.61-2.52,.84-.41,2.59-.67,4.59-.79h3.52c.23,0,.42-.19,.42-.42v-1.17c0-.23-.19-.42-.42-.42h-3.82c-3.12,0-5.34-1.01-6.68-3.04-.47-.72-.77-2.15-.93-4.15v-22.17c2.35,.51,4.56,.89,6.62,1.14,2.07,.25,3.99,.38,5.76,.38,7.25,0,12.85-1.88,16.82-5.65,3.97-3.77,5.95-8.66,5.95-14.67,0-4.42-1.31-8.24-3.91-11.47Zm-53.27,61.65h3.52c2,.12,3.75,.38,4.59,.79,1.18,.58,2.05,1.42,2.61,2.52,.35,.68,.59,2.61,.72,4.83,.08,1.36,.12,2.82,.12,4.18v14.31c0,.36-.19,.69-.51,.85-2.23,1.18-4.69,2.19-7.04,2.8-2.54,.66-5.16,1-7.88,1-4.64,0-8.17-1.46-12.57-4.06-4.4-2.6-7.96-6.7-10.68-12.29-2.72-5.59-4.08-13.68-4.08-20.46,0-8.35,2.05-16.17,6.14-22.21,4.89-7.16,12.18-10.42,21.41-10.75,5.48-.2,10.98,.99,15.23,3.52v21.93c0,1.5-.06,2.73-.15,3.84-.17,2-.47,3.43-.93,4.15-1.34,2.03-3.57,3.04-6.68,3.04h-3.82c-.23,0-.42,.19-.42,.42v1.17c0,.23,.19,.42,.42,.42Zm40.68-37.76c-2.74,2.92-5.99,4.38-9.75,4.38-1.05,0-2.32-.09-3.8-.27-1.49-.18-5.11-.82-5.11-.82V6.56s0-1.18,1.22-1.37c2.35-.51,4.32-.76,5.9-.76,3.04,0,5.76,.68,8.15,2.04,2.39,1.36,4.24,3.41,5.54,6.14,1.3,2.74,1.96,5.7,1.96,8.89,0,4.64-1.37,8.41-4.1,11.33Z"/></g></g></g></svg>