<?xml version="1.0" encoding="UTF-8"?><svg xmlns="http://www.w3.org/2000/svg" viewBox="0 0 214.43 209.74"><defs><style>.b{isolation:isolate;}.c{fill:#595757;}.d{mix-blend-mode:multiply;}</style></defs><g class="b"><g id="a"><g class="d"><path class="c" d="M10.31,122.15l5.15-.86c1.11-.19,1.78-.43,2.01-.73,.32-.41,.43-.97,.31-1.67l-.12-.71,.48-.08,1.34,7.97-.48,.08-.12-.7c-.13-.79-.47-1.31-1.01-1.57-.3-.14-.95-.12-1.96,.05l-11.42,1.91c-1.11,.19-1.78,.43-2.01,.72-.32,.42-.42,.98-.31,1.69l.12,.7-.48,.08-1.14-6.82c-.28-1.67-.34-3-.17-4.02,.16-1.01,.58-1.92,1.24-2.71,.66-.79,1.52-1.27,2.59-1.45,1.44-.24,2.7,.06,3.77,.91,1.07,.85,1.76,2.19,2.07,4.02,.08,.45,.13,.94,.15,1.47,.03,.53,.03,1.11,0,1.72Zm-.74,.12c0-.5,0-.94-.02-1.32-.02-.38-.05-.71-.1-.97-.16-.95-.65-1.71-1.46-2.29-.82-.57-1.78-.77-2.89-.58-.77,.13-1.45,.41-2.05,.85-.6,.44-1.01,.99-1.24,1.65-.23,.66-.27,1.37-.14,2.14,.08,.47,.26,1.05,.55,1.76l7.35-1.23Z"/><path class="c" d="M9.42,104.22c1.8,.07,3.22-.35,4.27-1.25,1.05-.9,1.6-1.97,1.63-3.22,.03-.83-.17-1.57-.59-2.2-.42-.63-1.15-1.17-2.19-1.62l.28-.42c1.2,.23,2.28,.83,3.24,1.8,.96,.97,1.42,2.16,1.38,3.56-.05,1.53-.65,2.82-1.82,3.88-1.17,1.05-2.71,1.55-4.62,1.49-2.07-.06-3.67-.67-4.79-1.83-1.12-1.15-1.66-2.57-1.61-4.26,.04-1.43,.53-2.59,1.45-3.48,.92-.89,2.13-1.31,3.63-1.27l-.27,8.8Zm-.77-.02l.18-5.9c-.78,.02-1.33,.1-1.65,.24-.5,.22-.9,.55-1.2,1-.3,.45-.45,.93-.47,1.43-.02,.77,.24,1.47,.79,2.09,.55,.62,1.33,1,2.34,1.14Z"/><path class="c" d="M6.44,84.41l2.67,.52c-1.58-1.4-2.26-2.65-2.04-3.75,.1-.5,.32-.89,.68-1.16,.35-.27,.72-.37,1.1-.29,.34,.07,.6,.24,.79,.52,.19,.28,.25,.59,.18,.91-.06,.32-.28,.65-.66,.98-.38,.34-.58,.6-.62,.79-.03,.16,.02,.36,.16,.58,.27,.48,.77,1.02,1.5,1.61l5.7,1.12c.66,.13,1.17,.14,1.54,.03,.26-.07,.49-.24,.71-.51,.21-.27,.38-.69,.49-1.25l.47,.09-1.26,6.41-.47-.09c.12-.64,.12-1.13,0-1.48-.09-.25-.28-.46-.57-.61-.14-.07-.55-.18-1.25-.31l-4.61-.9c-1.38-.27-2.21-.4-2.49-.4s-.49,.08-.64,.21c-.15,.14-.25,.32-.3,.56-.06,.28-.05,.61,0,.99l-.49,.04-.71-4.07,.11-.57Z"/><path class="c" d="M12,69.29l7.5,2.65c1.06,.38,1.78,.49,2.15,.35,.48-.19,.82-.56,1.01-1.1l.39-1.09,.45,.16-2.54,7.18-.45-.16,.19-.54c.12-.35,.15-.7,.09-1.05-.06-.35-.22-.62-.46-.83-.24-.21-.77-.46-1.59-.75l-7.5-2.65-.83,2.34-.9-.32,.83-2.33-.75-.27c-1.14-.4-2.03-.94-2.69-1.6-.65-.66-1.08-1.48-1.29-2.44-.21-.96-.13-1.94,.21-2.93,.32-.92,.91-1.66,1.74-2.23,.55-.38,1.06-.48,1.53-.32,.25,.09,.44,.29,.58,.59,.14,.31,.16,.59,.07,.85-.07,.2-.21,.39-.43,.56-.22,.18-.61,.34-1.17,.51-.57,.16-.98,.35-1.23,.57-.25,.22-.44,.49-.56,.82-.14,.4-.16,.78-.06,1.13,.1,.35,.35,.67,.73,.94,.38,.27,1.47,.73,3.24,1.35l.82,.29,1.09-3.1,.9,.32-1.09,3.1Z"/><path class="c" d="M20.36,49.84l6.4,3.6c1.22,.69,1.99,1.08,2.29,1.17,.31,.09,.55,.1,.73,.03,.18-.07,.32-.2,.42-.38,.14-.25,.24-.57,.28-.96l.5,.06-.57,4.06-.31,.55-2.24-1.26c.45,1.51,.66,2.58,.63,3.23-.03,.64-.2,1.25-.51,1.8-.35,.62-.83,1.07-1.42,1.33-.6,.26-1.22,.33-1.85,.21-.64-.12-1.45-.46-2.43-1.02l-4.71-2.65c-.5-.28-.88-.42-1.13-.41-.26,0-.5,.09-.73,.25-.23,.16-.5,.54-.82,1.13l-.43-.24,2.19-3.89,7.06,3.97c.98,.55,1.73,.74,2.24,.55,.51-.19,.91-.53,1.19-1.04,.2-.35,.31-.8,.35-1.36,.04-.56-.06-1.3-.3-2.24l-5.98-3.36c-.6-.34-1.07-.45-1.41-.34-.34,.11-.72,.53-1.15,1.25l-.43-.24,2.13-3.79Z"/><path class="c" d="M29.51,40.8c0-1.28,0-2.03,.02-2.24,.04-.53,.16-1.04,.36-1.52,.19-.48,.45-.89,.78-1.23,.55-.58,1.18-.93,1.89-1.05,.72-.12,1.44,.04,2.19,.47-.12-1.42-.07-2.48,.14-3.19,.21-.71,.55-1.31,1.03-1.82,.46-.49,.99-.82,1.59-.97,.6-.16,1.28-.09,2.03,.2,.51,.2,1.17,.68,1.96,1.42l3.8,3.56c.55,.52,.97,.83,1.26,.94,.21,.07,.44,.05,.71-.04,.27-.09,.6-.34,.99-.75l.35,.33-4.3,4.59-.35-.33,.18-.19c.37-.4,.59-.78,.65-1.14,.04-.25-.02-.52-.18-.8-.08-.13-.38-.44-.9-.92l-3.8-3.56c-.72-.68-1.31-1.06-1.78-1.16-.66-.12-1.26,.11-1.81,.69-.34,.36-.59,.8-.76,1.32-.17,.52-.27,1.26-.28,2.21l.09,.12,.43,.37,4.21,3.95c.6,.57,1.01,.88,1.23,.95,.21,.07,.46,.05,.75-.05,.28-.1,.65-.39,1.09-.86l.35,.33-4.41,4.7-.35-.33c.48-.51,.76-.92,.82-1.22,.07-.3,.02-.6-.14-.89-.08-.14-.38-.45-.91-.95l-3.8-3.56c-.72-.68-1.34-1.05-1.87-1.12-.69-.09-1.29,.13-1.79,.67-.34,.37-.59,.82-.74,1.35-.24,.83-.33,1.56-.26,2.19l4.73,4.44c.58,.54,.99,.85,1.25,.93,.25,.08,.5,.08,.74,0,.24-.08,.6-.38,1.08-.89l.35,.33-4.31,4.6-.35-.33c.4-.43,.64-.77,.71-1.02,.07-.25,.05-.51-.05-.77-.11-.27-.43-.66-.98-1.17l-3.37-3.17c-.97-.91-1.63-1.47-1.97-1.67-.26-.15-.47-.21-.65-.19-.18,.03-.35,.13-.51,.3-.18,.19-.34,.46-.49,.82l-.49-.17,1.55-3.81,.41-.44,1.88,1.76Z"/><path class="c" d="M49.88,25.16c.99,1.5,2.16,2.42,3.49,2.75,1.34,.34,2.53,.16,3.57-.54,.69-.46,1.18-1.05,1.45-1.75,.27-.7,.29-1.61,.05-2.72l.51-.02c.51,1.11,.65,2.34,.42,3.69-.23,1.35-.93,2.41-2.1,3.19-1.27,.85-2.68,1.11-4.21,.77-1.54-.34-2.83-1.3-3.89-2.89-1.15-1.72-1.58-3.38-1.29-4.96,.29-1.58,1.13-2.85,2.54-3.78,1.19-.79,2.41-1.07,3.67-.84,1.26,.23,2.31,.97,3.14,2.22l-7.33,4.89Zm-.42-.64l4.91-3.27c-.47-.62-.85-1.02-1.15-1.2-.47-.28-.97-.41-1.51-.39-.54,.02-1.02,.17-1.43,.45-.64,.43-1.06,1.05-1.25,1.86-.19,.81-.05,1.66,.43,2.56Z"/><path class="c" d="M67.32,18.66c-.86-.03-1.61-.26-2.24-.7-.64-.44-1.11-1.01-1.41-1.74-.47-1.1-.43-2.24,.11-3.4,.54-1.16,1.49-2.04,2.86-2.61,1.12-.47,2.2-.62,3.24-.45l2.49-1.05c.37-.16,.59-.23,.65-.24,.07,0,.13,.01,.17,.05,.08,.05,.16,.17,.24,.36,.09,.21,.13,.37,.12,.46,0,.05-.04,.1-.09,.16s-.26,.15-.63,.31l-1.53,.64c.73,.38,1.28,1.03,1.66,1.94,.44,1.04,.39,2.11-.13,3.2-.53,1.09-1.49,1.94-2.9,2.53-.58,.25-1.21,.41-1.89,.51-.25,.47-.39,.84-.42,1.13-.04,.29-.02,.51,.05,.67,.06,.14,.19,.24,.38,.31,.2,.07,.51,.05,.95-.07,.25-.07,.86-.29,1.83-.67,1.78-.7,2.94-1.13,3.5-1.27,.84-.23,1.59-.22,2.26,.04,.67,.25,1.14,.71,1.42,1.38,.39,.92,.3,1.97-.27,3.16-.83,1.75-2.32,3.07-4.47,3.98-1.65,.7-3.19,.93-4.63,.7-.81-.14-1.31-.42-1.5-.86-.08-.19-.12-.41-.11-.64,.02-.36,.14-.91,.37-1.63,.03-.1,.28-.72,.75-1.87-.55-.06-.96-.16-1.23-.28-.27-.12-.45-.31-.56-.56-.12-.28-.14-.67-.06-1.15,.08-.48,.42-1.26,1-2.33Zm-.65-7.78c-.63,.27-1.06,.73-1.29,1.39-.23,.66-.13,1.48,.29,2.47,.54,1.28,1.25,2.16,2.13,2.62,.67,.35,1.35,.38,2.03,.09,.65-.27,1.09-.73,1.31-1.37,.22-.64,.13-1.45-.29-2.44-.54-1.29-1.27-2.18-2.16-2.66-.66-.35-1.33-.38-2.02-.1Zm2.24,11.9c-.23,.58-.37,1.1-.42,1.54-.06,.44-.02,.82,.11,1.12,.16,.39,.56,.63,1.17,.71,1.07,.14,2.41-.13,4.02-.81,1.54-.65,2.56-1.39,3.08-2.21,.51-.83,.65-1.53,.4-2.11-.18-.42-.52-.63-1.03-.63-.52,0-1.45,.27-2.77,.8-1.94,.76-3.46,1.29-4.56,1.59Z"/><path class="c" d="M83.3,4.8l.61,2.65c.63-2.01,1.5-3.14,2.59-3.39,.5-.11,.94-.06,1.33,.15,.39,.21,.63,.51,.72,.89,.08,.34,.02,.65-.16,.93-.18,.29-.44,.47-.76,.54-.32,.07-.71,0-1.17-.2-.46-.21-.79-.29-.98-.24-.16,.04-.32,.16-.47,.38-.33,.45-.61,1.12-.86,2.03l1.3,5.66c.15,.65,.35,1.13,.6,1.42,.17,.2,.42,.35,.76,.44,.33,.09,.78,.07,1.34-.06l.11,.46-6.36,1.46-.11-.46c.63-.15,1.08-.35,1.35-.61,.19-.19,.3-.44,.32-.77,.01-.16-.06-.58-.22-1.27l-1.05-4.57c-.32-1.37-.53-2.19-.65-2.43-.12-.25-.27-.42-.46-.5-.19-.08-.4-.1-.63-.04-.28,.06-.58,.2-.91,.41l-.24-.43,3.42-2.31,.57-.13Z"/><path class="c" d="M102.33,12.98c-1.25,1.04-2.03,1.65-2.36,1.81-.49,.25-1.01,.39-1.58,.43-.88,.05-1.62-.19-2.23-.72-.6-.54-.94-1.27-.99-2.2-.04-.59,.07-1.11,.32-1.56,.34-.62,.97-1.23,1.88-1.81,.91-.59,2.43-1.32,4.57-2.22l-.03-.48c-.07-1.21-.33-2.02-.76-2.44-.43-.42-1.03-.61-1.8-.56-.58,.04-1.04,.21-1.36,.53-.33,.32-.49,.68-.46,1.06l.08,.76c.03,.4-.06,.72-.27,.96-.2,.23-.48,.36-.83,.38-.34,.02-.63-.08-.86-.29-.23-.21-.36-.52-.38-.92-.05-.76,.32-1.48,1.09-2.16,.77-.68,1.9-1.07,3.37-1.16,1.13-.07,2.07,.05,2.81,.37,.56,.24,.99,.64,1.29,1.21,.19,.37,.32,1.14,.39,2.31l.25,4.1c.07,1.15,.14,1.86,.2,2.11,.06,.26,.15,.43,.26,.51,.11,.08,.24,.12,.38,.11,.15,0,.28-.05,.38-.12,.19-.13,.54-.47,1.07-1.03l.04,.74c-.96,1.38-1.91,2.1-2.85,2.16-.45,.03-.82-.1-1.11-.38-.29-.28-.46-.78-.51-1.5Zm-.05-.86l-.29-4.61c-1.37,.61-2.25,1.04-2.64,1.29-.71,.43-1.21,.87-1.49,1.31-.29,.44-.42,.91-.39,1.41,.04,.63,.27,1.15,.69,1.54,.42,.39,.9,.57,1.41,.54,.7-.04,1.6-.54,2.7-1.49Z"/><path class="c" d="M111.75,3.65l4.08-1,.53,.07-.36,2.81c.79-.98,1.54-1.63,2.25-1.97,.71-.34,1.43-.46,2.16-.37,1.27,.16,2.27,.77,3,1.82,.89,1.29,1.22,2.86,.99,4.71-.26,2.07-1.11,3.71-2.53,4.9-1.17,.98-2.54,1.37-4.11,1.17-.68-.09-1.26-.25-1.73-.5-.35-.18-.73-.49-1.14-.94l-.46,3.66c-.1,.82-.12,1.35-.04,1.59,.08,.24,.24,.44,.49,.6,.25,.16,.71,.29,1.4,.38l-.06,.49-6.63-.84,.06-.49,.35,.04c.5,.07,.95,.04,1.33-.11,.19-.07,.34-.21,.47-.41s.24-.74,.35-1.62l1.44-11.36c.1-.78,.12-1.28,.08-1.5-.05-.22-.14-.39-.29-.52-.15-.12-.36-.21-.64-.24-.22-.03-.51,0-.87,.08l-.11-.44Zm4.15,2.65l-.57,4.48c-.12,.97-.16,1.61-.12,1.93,.07,.52,.32,1.01,.78,1.46,.45,.45,1.06,.72,1.82,.82,.92,.12,1.71-.13,2.37-.74,.86-.8,1.39-2,1.6-3.62,.23-1.84-.01-3.3-.73-4.4-.5-.76-1.16-1.19-1.97-1.29-.44-.06-.89,0-1.35,.15-.35,.12-.96,.52-1.82,1.21Z"/><path class="c" d="M138.25,.68l-2.81,8.4c1.32-.69,2.31-1.09,2.98-1.19,.67-.1,1.29-.05,1.86,.14,.69,.23,1.22,.61,1.59,1.13,.37,.52,.55,1.21,.53,2.06-.01,.59-.26,1.6-.73,3.02l-1.36,4.06c-.24,.73-.35,1.25-.31,1.55,.02,.23,.12,.44,.29,.63,.17,.19,.54,.38,1.1,.56l-.15,.45-5.94-1.99,.15-.45,.28,.09c.56,.19,.98,.24,1.26,.15,.27-.09,.51-.28,.7-.57,.07-.12,.22-.51,.43-1.17l1.36-4.06c.42-1.25,.63-2.1,.62-2.54s-.12-.81-.36-1.1c-.23-.3-.56-.52-.98-.66-.43-.14-.92-.19-1.46-.12-.54,.06-1.25,.31-2.12,.76l-2.03,6.07c-.26,.79-.38,1.29-.35,1.51,.03,.22,.15,.44,.35,.66,.21,.21,.62,.42,1.23,.63l-.15,.45-5.99-2,.15-.45c.54,.18,.99,.24,1.35,.19,.2-.02,.4-.14,.58-.33s.4-.66,.64-1.38l3.48-10.39c.44-1.31,.68-2.13,.71-2.45,.03-.32,0-.56-.1-.72-.1-.15-.27-.27-.49-.35-.18-.06-.51-.1-.96-.1l-.04-.5,4.09-.19,.61,.2Z"/><path class="c" d="M150.65,12.52l5.16,2.95-.24,.42-.25-.15c-.36-.21-.68-.29-.94-.24-.27,.05-.46,.18-.59,.4-.17,.3-.28,.79-.31,1.47l-.34,6.84,5.8-4.38c.32-.24,.56-.51,.74-.81,.08-.14,.11-.26,.09-.36-.02-.12-.08-.25-.19-.37-.11-.13-.34-.29-.68-.49l.24-.43,3.6,2.06-.24,.42c-.32-.14-.58-.21-.79-.21s-.49,.07-.83,.21c-.13,.07-.44,.28-.92,.65l-10.51,7.9c-1.02,.77-2.03,1.21-3.03,1.33-1,.12-1.83-.01-2.48-.39-.48-.27-.79-.63-.95-1.06-.16-.44-.14-.82,.05-1.16,.19-.32,.44-.52,.78-.58,.33-.07,.69,0,1.08,.23,.27,.15,.58,.44,.94,.88,.26,.3,.42,.47,.5,.52,.24,.14,.57,.17,.99,.1,.42-.07,.97-.37,1.65-.88l1.83-1.37,.57-10.2c.01-.31,0-.71-.07-1.22-.05-.38-.11-.66-.19-.82-.12-.23-.35-.51-.71-.83l.24-.42Z"/></g><g class="d"><path class="c" d="M34.96,180.18l-3.33-3.78,2.07-10.33c-.33-.34-.59-.63-.78-.85-.08-.09-.16-.19-.25-.3-.09-.11-.18-.22-.27-.34l-3.91,3.44c-.85,.75-1.29,1.3-1.32,1.68-.06,.52,.15,1.05,.61,1.58l.49,.55-.37,.32-5.34-6.07,.37-.32,.47,.53c.53,.6,1.09,.86,1.69,.8,.33-.04,.88-.39,1.65-1.06l8.69-7.65c.85-.75,1.29-1.31,1.32-1.68,.05-.53-.16-1.06-.63-1.6l-.47-.53,.37-.32,4.54,5.16c1.32,1.51,2.2,2.71,2.62,3.6,.42,.9,.57,1.84,.45,2.83-.12,.99-.57,1.83-1.34,2.51-.83,.73-1.8,1.08-2.9,1.04s-2.31-.53-3.61-1.5l-1.29,6.32c-.3,1.45-.38,2.54-.25,3.28,.13,.74,.5,1.53,1.1,2.37l-.37,.32Zm-1.94-16.15c.12,.13,.22,.25,.3,.35,.08,.1,.15,.18,.21,.25,1.19,1.35,2.36,2.12,3.52,2.32,1.16,.2,2.17-.08,3.03-.84,.84-.74,1.28-1.62,1.32-2.63,.04-1.02-.34-1.98-1.15-2.89-.36-.4-.9-.89-1.63-1.47l-5.6,4.93Z"/><path class="c" d="M45.64,178.95c-1.09,1.43-1.58,2.83-1.45,4.21,.12,1.38,.69,2.44,1.68,3.2,.67,.5,1.38,.77,2.13,.79,.76,.02,1.62-.26,2.59-.85l.19,.47c-.88,.85-2,1.38-3.34,1.61-1.35,.23-2.58-.09-3.71-.94-1.22-.92-1.93-2.17-2.11-3.73-.19-1.56,.3-3.1,1.45-4.63,1.25-1.65,2.67-2.6,4.26-2.85,1.59-.25,3.06,.13,4.41,1.15,1.14,.86,1.81,1.93,2,3.19,.19,1.27-.16,2.5-1.06,3.7l-7.03-5.31Zm.46-.61l4.71,3.56c.43-.65,.68-1.14,.75-1.48,.11-.54,.07-1.05-.13-1.55-.2-.5-.49-.9-.89-1.21-.61-.46-1.34-.65-2.16-.57-.83,.09-1.59,.5-2.28,1.25Z"/><path class="c" d="M65.12,194.55c-1.04,1.26-2.21,2.03-3.49,2.33-1.29,.3-2.47,.17-3.54-.4-1.28-.67-2.13-1.77-2.55-3.29-.42-1.52-.17-3.15,.73-4.9,.88-1.69,2.13-2.78,3.73-3.29,1.61-.5,3.15-.37,4.63,.4,1.11,.58,1.88,1.34,2.3,2.27,.42,.93,.48,1.7,.17,2.3-.16,.3-.38,.48-.68,.56-.3,.08-.63,.02-.99-.17-.49-.25-.77-.59-.87-1.02-.05-.24,.02-.6,.21-1.08,.19-.48,.21-.92,.05-1.31-.17-.38-.5-.71-1.01-.98-.82-.43-1.64-.49-2.44-.17-1.07,.42-1.93,1.26-2.58,2.51-.67,1.28-.93,2.58-.78,3.91,.15,1.33,.79,2.28,1.92,2.87,.81,.42,1.67,.54,2.58,.35,.64-.12,1.42-.55,2.34-1.27l.27,.35Z"/><path class="c" d="M78.62,191.17c1.84,.58,3.1,1.72,3.8,3.4,.59,1.43,.64,2.89,.18,4.36-.33,1.03-.92,2-1.78,2.89-.86,.89-1.83,1.46-2.92,1.71-1.09,.25-2.19,.19-3.31-.17-1.83-.58-3.06-1.74-3.7-3.47-.54-1.46-.58-2.91-.12-4.36,.34-1.06,.95-2.02,1.83-2.89,.88-.87,1.86-1.41,2.92-1.63,1.06-.21,2.1-.16,3.1,.16Zm-.67,.69c-.47-.15-.98-.17-1.54-.05-.56,.11-1.09,.46-1.59,1.03-.5,.57-.92,1.38-1.25,2.42-.53,1.68-.64,3.24-.33,4.68,.32,1.44,1.05,2.35,2.2,2.71,.86,.27,1.67,.16,2.44-.33,.77-.5,1.42-1.56,1.94-3.2,.65-2.05,.7-3.81,.15-5.28-.37-1.01-1.04-1.66-2.02-1.97Z"/><path class="c" d="M92.45,194.41l-.41,2.69c1.33-1.63,2.55-2.37,3.66-2.2,.5,.08,.9,.29,1.18,.63s.4,.71,.34,1.09c-.05,.34-.22,.61-.49,.81-.27,.2-.58,.27-.91,.22-.32-.05-.66-.25-1.01-.62-.35-.36-.63-.56-.82-.58-.17-.03-.36,.03-.58,.18-.47,.29-.98,.82-1.55,1.57l-.88,5.74c-.1,.66-.09,1.18,.03,1.54,.08,.25,.26,.48,.54,.68s.7,.35,1.27,.44l-.07,.47-6.45-.99,.07-.47c.64,.1,1.13,.08,1.47-.07,.25-.1,.44-.3,.58-.59,.07-.14,.16-.56,.26-1.26l.71-4.64c.21-1.39,.31-2.23,.29-2.5-.02-.27-.1-.48-.24-.63-.14-.15-.33-.24-.57-.28-.28-.04-.61-.03-.99,.05l-.07-.49,4.03-.88,.58,.09Z"/><path class="c" d="M109.67,206.57c-.62,.62-1.22,1.07-1.82,1.34-.59,.27-1.23,.41-1.92,.41-1.39,0-2.61-.54-3.65-1.64-1.05-1.1-1.57-2.52-1.58-4.25-.01-1.74,.56-3.33,1.7-4.78,1.14-1.45,2.62-2.18,4.43-2.19,1.12,0,2.05,.33,2.79,1v-2.23c-.02-1.38-.06-2.23-.13-2.55-.07-.32-.18-.53-.33-.65-.15-.11-.33-.17-.56-.17-.24,0-.56,.07-.96,.22l-.18-.46,3.79-1.5h.63l.08,14c0,1.42,.05,2.28,.12,2.6,.07,.31,.18,.53,.34,.65,.15,.12,.33,.18,.54,.18,.25,0,.58-.08,1-.23l.16,.46-3.78,1.51h-.64v-1.73Zm-.01-.93l-.04-6.24c-.06-.6-.23-1.14-.51-1.64-.28-.49-.65-.86-1.11-1.11-.46-.25-.91-.37-1.35-.37-.82,0-1.54,.36-2.18,1.06-.84,.92-1.25,2.26-1.24,4.03,0,1.78,.43,3.14,1.25,4.08,.82,.94,1.73,1.41,2.74,1.41,.84,0,1.66-.41,2.44-1.22Z"/><path class="c" d="M129.4,188.74l1.03,3.85,2.88-.77,.24,.89-2.88,.77,2.03,7.59c.2,.76,.45,1.24,.75,1.44,.3,.2,.63,.26,.99,.16,.3-.08,.56-.24,.79-.49,.23-.25,.38-.57,.44-.95l.52-.14c-.09,.92-.37,1.66-.83,2.24-.46,.57-1,.94-1.61,1.11-.41,.11-.85,.11-1.3,0-.45-.11-.83-.34-1.12-.7-.3-.35-.56-.95-.78-1.79l-2.11-7.87-1.95,.52-.11-.42c.44-.32,.86-.77,1.26-1.36s.71-1.24,.95-1.96c.12-.38,.25-1.05,.39-2l.42-.11Z"/><path class="c" d="M137.66,183.14l3.53,8.12c.52-1.4,.99-2.35,1.42-2.87,.43-.52,.92-.9,1.48-1.14,.66-.29,1.31-.36,1.94-.22,.63,.14,1.22,.53,1.77,1.18,.39,.45,.88,1.36,1.47,2.73l1.71,3.93c.31,.7,.57,1.16,.81,1.37,.17,.16,.38,.25,.63,.27,.25,.02,.65-.08,1.2-.32l.19,.44-5.74,2.5-.19-.44,.27-.12c.54-.24,.89-.48,1.03-.73s.19-.55,.14-.89c-.03-.14-.18-.53-.46-1.16l-1.71-3.93c-.53-1.21-.94-1.98-1.24-2.3-.3-.32-.63-.52-1-.58-.37-.06-.76,0-1.17,.17-.42,.18-.81,.47-1.17,.88-.36,.41-.71,1.06-1.07,1.98l2.55,5.87c.33,.76,.58,1.21,.75,1.36,.17,.15,.4,.23,.7,.25,.3,.02,.74-.1,1.34-.36l.19,.44-5.79,2.52-.19-.44c.52-.22,.89-.48,1.12-.76,.14-.15,.21-.37,.21-.64,0-.27-.15-.75-.45-1.45l-4.37-10.05c-.55-1.27-.92-2.04-1.11-2.3-.19-.26-.37-.42-.55-.47-.18-.05-.38-.02-.6,.07-.18,.08-.44,.27-.78,.57l-.36-.35,2.91-2.88,.59-.26Z"/><path class="c" d="M156.39,186.32c.98,1.51,2.14,2.43,3.48,2.78,1.34,.35,2.53,.17,3.58-.52,.7-.46,1.18-1.04,1.46-1.74,.28-.7,.3-1.61,.07-2.73h.51c.5,1.1,.63,2.33,.39,3.67-.24,1.34-.95,2.4-2.12,3.18-1.28,.84-2.69,1.09-4.22,.74s-2.82-1.32-3.88-2.92c-1.14-1.73-1.56-3.39-1.26-4.97,.3-1.58,1.15-2.84,2.56-3.77,1.19-.79,2.42-1.06,3.68-.81,1.26,.24,2.3,.99,3.12,2.24l-7.36,4.84Zm-.42-.64l4.93-3.24c-.47-.62-.85-1.03-1.15-1.21-.46-.28-.97-.42-1.5-.4-.54,.02-1.02,.16-1.44,.44-.64,.42-1.06,1.04-1.26,1.85-.2,.81-.06,1.66,.41,2.57Z"/><path class="c" d="M171.25,161.71l5.4,4.53,2.21-2.63c.51-.6,.75-1.15,.73-1.65-.02-.49-.36-1.1-1.03-1.82l.33-.39,4.65,3.9-.33,.39c-.54-.44-.99-.7-1.36-.77-.37-.07-.71-.04-1.04,.1-.33,.14-.7,.45-1.1,.93l-2.21,2.63,4.31,3.62c.7,.58,1.19,.92,1.49,1.02,.23,.07,.5,.04,.81-.08,.42-.18,.78-.44,1.07-.78l.44-.52,.38,.31-5.21,6.2-.38-.31,.43-.51c.5-.6,.7-1.17,.6-1.72-.07-.35-.52-.87-1.34-1.57l-8.87-7.45c-.7-.58-1.19-.92-1.49-1.02-.23-.07-.5-.05-.8,.07-.42,.17-.78,.43-1.07,.78l-.43,.51-.38-.31,9.03-10.75,3.13,2.4-.31,.37c-.8-.35-1.45-.53-1.95-.54-.51,0-.98,.11-1.41,.36s-.97,.74-1.6,1.5l-2.68,3.19Z"/><path class="c" d="M184.68,150.77l2.35,1.38c-1.02-1.84-1.25-3.25-.68-4.21,.26-.44,.6-.73,1.03-.87,.42-.14,.8-.11,1.14,.09,.3,.17,.49,.43,.57,.75,.08,.33,.04,.64-.13,.92-.16,.28-.48,.52-.95,.71-.47,.19-.75,.37-.85,.54-.08,.14-.1,.34-.05,.6,.1,.54,.39,1.22,.88,2.02l5,2.95c.58,.34,1.06,.52,1.44,.54,.27,.02,.55-.07,.84-.25,.29-.18,.58-.52,.88-1.02l.41,.24-3.31,5.62-.41-.24c.33-.56,.49-1.02,.48-1.39,0-.27-.12-.53-.33-.76-.11-.12-.46-.35-1.07-.71l-4.04-2.38c-1.21-.72-1.95-1.12-2.22-1.2-.26-.08-.49-.09-.68-.01-.19,.08-.34,.22-.47,.43-.15,.25-.25,.56-.32,.94l-.48-.12,.68-4.07,.3-.5Z"/><path class="c" d="M201.33,140.93c.4,1.57,.61,2.54,.62,2.91,.02,.55-.08,1.08-.29,1.61-.33,.82-.87,1.38-1.61,1.7-.75,.31-1.55,.3-2.42-.06-.55-.22-.97-.54-1.26-.96-.41-.58-.69-1.4-.83-2.47s-.15-2.76-.03-5.08l-.44-.18c-1.12-.45-1.96-.58-2.53-.37-.57,.21-1,.67-1.29,1.38-.22,.54-.25,1.03-.11,1.46,.14,.44,.4,.73,.76,.88l.72,.26c.38,.15,.62,.37,.75,.65,.12,.29,.12,.59-.02,.92-.13,.32-.34,.53-.63,.65-.29,.12-.62,.1-.99-.05-.7-.28-1.2-.92-1.48-1.92-.28-.99-.15-2.18,.41-3.54,.43-1.05,.94-1.84,1.55-2.38,.46-.41,1.01-.62,1.64-.64,.41-.01,1.16,.2,2.25,.64l3.81,1.54c1.07,.43,1.74,.68,1.99,.73,.26,.06,.45,.05,.57-.02,.12-.07,.21-.16,.26-.29,.06-.14,.08-.27,.06-.4-.03-.22-.19-.69-.47-1.41l.69,.28c.84,1.46,1.08,2.63,.72,3.51-.17,.42-.45,.7-.82,.84-.38,.14-.9,.07-1.58-.19Zm-.8-.32l-4.28-1.73c-.04,1.5-.03,2.47,.02,2.94,.08,.83,.26,1.46,.54,1.92,.27,.45,.64,.77,1.11,.96,.59,.24,1.15,.25,1.69,.04s.9-.56,1.1-1.04c.26-.65,.21-1.68-.18-3.08Z"/><path class="c" d="M202.66,127.83c-.52,.69-1.14,1.17-1.86,1.44-.72,.27-1.47,.33-2.23,.16-1.17-.25-2.08-.93-2.73-2.04-.64-1.11-.81-2.39-.5-3.84,.25-1.19,.75-2.16,1.49-2.91l.57-2.64c.08-.39,.14-.62,.18-.67,.04-.06,.08-.1,.14-.11,.09-.04,.23-.04,.43,0,.22,.05,.38,.1,.45,.17,.04,.04,.06,.09,.07,.17,.01,.07-.02,.31-.11,.7l-.35,1.62c.73-.38,1.58-.46,2.54-.25,1.1,.24,1.95,.88,2.54,1.94,.59,1.06,.73,2.33,.41,3.83-.13,.62-.35,1.23-.66,1.84,.24,.47,.47,.8,.69,.99,.22,.19,.41,.31,.58,.35,.15,.03,.3-.01,.47-.13,.17-.12,.33-.39,.49-.82,.09-.25,.25-.87,.5-1.88,.44-1.86,.76-3.06,.96-3.59,.29-.82,.73-1.43,1.33-1.83s1.24-.53,1.95-.37c.97,.21,1.78,.89,2.43,2.03,.95,1.68,1.19,3.67,.7,5.94-.38,1.75-1.07,3.15-2.08,4.19-.58,.59-1.1,.83-1.56,.73-.21-.04-.4-.14-.59-.28-.29-.22-.66-.63-1.13-1.24-.06-.08-.43-.64-1.1-1.69-.37,.41-.68,.7-.93,.84-.25,.15-.51,.2-.78,.14-.3-.07-.63-.27-.98-.62-.35-.34-.79-1.06-1.34-2.16Zm-6.74-3.92c-.14,.67-.01,1.29,.4,1.85,.41,.56,1.14,.96,2.19,1.18,1.36,.29,2.48,.21,3.37-.25,.67-.35,1.08-.89,1.24-1.61,.15-.69,.02-1.31-.37-1.86-.4-.55-1.12-.94-2.17-1.16-1.37-.29-2.51-.21-3.42,.25-.67,.34-1.08,.87-1.24,1.6Zm11.03,4.99c.35,.52,.69,.93,1.02,1.23,.33,.3,.66,.48,.98,.55,.41,.09,.83-.1,1.25-.56,.73-.79,1.28-2.05,1.65-3.76,.35-1.63,.33-2.9-.05-3.79-.38-.89-.88-1.41-1.5-1.54-.45-.1-.82,.07-1.11,.49-.29,.43-.6,1.34-.94,2.73-.49,2.03-.93,3.58-1.31,4.64Z"/><path class="c" d="M197.27,109.34l2.72,.15c-1.75-1.17-2.6-2.31-2.54-3.43,.03-.51,.2-.92,.51-1.24,.31-.32,.66-.46,1.05-.44,.34,.02,.63,.16,.85,.41,.22,.25,.33,.55,.31,.88-.02,.33-.19,.68-.51,1.07s-.49,.68-.5,.87c0,.17,.07,.35,.23,.56,.34,.44,.91,.9,1.71,1.39l5.79,.32c.67,.04,1.18-.02,1.53-.18,.25-.11,.45-.31,.63-.61,.17-.3,.28-.73,.31-1.31l.48,.03-.36,6.52-.48-.03c.04-.65-.03-1.13-.21-1.46-.13-.24-.34-.41-.65-.52-.15-.05-.57-.1-1.28-.14l-4.69-.26c-1.41-.08-2.25-.09-2.52-.05-.27,.04-.47,.15-.61,.3-.13,.16-.2,.35-.22,.59-.02,.29,.03,.62,.15,.98l-.48,.11-1.27-3.93,.03-.58Z"/><path class="c" d="M207.52,92.9c1.08,1.21,1.71,1.98,1.89,2.3,.27,.48,.43,1,.48,1.56,.08,.88-.13,1.63-.65,2.25-.52,.62-1.24,.98-2.17,1.07-.59,.06-1.11-.03-1.57-.27-.63-.32-1.25-.93-1.87-1.82-.61-.89-1.4-2.39-2.36-4.49l-.47,.04c-1.2,.11-2.01,.39-2.42,.84-.41,.44-.58,1.05-.51,1.82,.05,.58,.25,1.03,.58,1.34,.33,.32,.69,.47,1.08,.43l.76-.1c.41-.04,.73,.04,.97,.24,.24,.2,.38,.47,.41,.82,.03,.34-.05,.63-.26,.87-.21,.24-.51,.38-.9,.41-.75,.07-1.49-.27-2.19-1.02-.71-.75-1.13-1.86-1.27-3.33-.11-1.13-.01-2.07,.28-2.82,.22-.57,.61-1.01,1.16-1.33,.36-.2,1.12-.36,2.29-.47l4.09-.39c1.15-.11,1.85-.2,2.11-.27,.25-.07,.42-.16,.5-.28,.08-.12,.11-.24,.1-.38-.01-.15-.06-.27-.13-.38-.13-.18-.49-.53-1.07-1.03l.74-.07c1.41,.91,2.17,1.84,2.25,2.78,.04,.45-.07,.83-.34,1.12-.27,.3-.77,.48-1.49,.56Zm-.86,.08l-4.59,.44c.66,1.34,1.12,2.21,1.38,2.6,.46,.69,.91,1.18,1.36,1.45,.45,.27,.93,.39,1.43,.34,.63-.06,1.14-.31,1.52-.75,.38-.44,.54-.91,.5-1.43-.07-.7-.59-1.58-1.58-2.65Z"/><path class="c" d="M197.28,81.83c-2.05-.98-3.25-2.13-3.61-3.43-.18-.67-.19-1.29,0-1.86,.18-.57,.6-1.1,1.25-1.59,.46-.34,1.21-.65,2.26-.94l4.98-1.38c.74-.21,1.22-.41,1.45-.6,.18-.16,.31-.36,.36-.61,.06-.25,0-.67-.16-1.26l.46-.13,1.68,6.08-.46,.13-.07-.25c-.16-.57-.35-.95-.58-1.13s-.52-.27-.86-.27c-.14,0-.54,.09-1.21,.28l-4.78,1.32c-1.06,.29-1.79,.65-2.19,1.08-.4,.42-.5,.98-.31,1.67,.3,1.06,1.14,1.97,2.54,2.72l6.15-1.7c.79-.22,1.26-.4,1.42-.55,.21-.19,.34-.41,.4-.67,.05-.25-.01-.71-.2-1.38l.46-.13,1.68,6.08-.46,.13-.07-.27c-.17-.62-.44-1.01-.8-1.14-.36-.14-.97-.09-1.82,.15l-4.33,1.2c-1.4,.39-2.25,.66-2.53,.81-.29,.15-.47,.31-.54,.48-.07,.17-.08,.37-.01,.6,.07,.25,.22,.53,.44,.85l-.4,.33-2.45-3.31-.16-.58,2.47-.68Z"/><path class="c" d="M193.37,56.98c1.59-.38,2.99-.3,4.19,.24,1.21,.54,2.07,1.35,2.59,2.45,.62,1.31,.64,2.69,.06,4.16-.58,1.47-1.76,2.62-3.53,3.47-1.72,.82-3.37,.94-4.96,.38-1.59-.56-2.74-1.6-3.46-3.11-.54-1.13-.7-2.2-.47-3.2,.22-1,.64-1.65,1.25-1.94,.3-.14,.6-.16,.88-.04,.29,.12,.51,.36,.69,.73,.24,.49,.26,.94,.08,1.33-.1,.22-.37,.47-.82,.74-.45,.27-.72,.61-.83,1.02-.1,.41-.02,.87,.22,1.39,.4,.84,1.01,1.37,1.85,1.6,1.1,.31,2.29,.16,3.58-.45,1.31-.62,2.3-1.51,2.97-2.66,.68-1.15,.74-2.3,.2-3.45-.39-.82-1.01-1.43-1.85-1.83-.59-.29-1.46-.42-2.63-.4v-.44Z"/><path class="c" d="M186.95,52.09c1.48-1.02,2.38-2.2,2.69-3.55,.31-1.35,.11-2.53-.61-3.56-.48-.69-1.07-1.16-1.78-1.42-.71-.26-1.62-.26-2.73,0l-.03-.51c1.1-.53,2.33-.69,3.68-.49s2.43,.88,3.23,2.04c.87,1.26,1.16,2.66,.85,4.2-.31,1.54-1.25,2.86-2.82,3.95-1.7,1.18-3.35,1.65-4.94,1.39-1.59-.26-2.87-1.08-3.83-2.46-.81-1.17-1.12-2.39-.91-3.66,.21-1.27,.93-2.33,2.16-3.18l5.03,7.24Zm-.63,.44l-3.37-4.85c-.61,.48-1,.87-1.18,1.18-.27,.47-.39,.98-.36,1.52,.03,.54,.19,1.01,.47,1.42,.44,.63,1.07,1.04,1.88,1.21,.81,.18,1.67,.02,2.56-.48Z"/></g></g></g></svg>